<svg>
<g width="50" height="50" viewBox="0 0 50 50" fill="none" xmlns="http://www.w3.org/2000/svg">
    <g id="css">
<path d="M38.0508 10.8437L12.946 10.8377L13.3515 15.7547L32.6381 15.7577L32.1519 20.8502H19.5035L19.9608 25.6742H31.7358L31.0392 32.2806L25.4969 33.7886L19.8663 32.2701L19.508 28.3134H14.5359L15.0877 35.5411L25.4969 38.7341L35.7309 35.8652L38.0493 10.8452L38.0508 10.8437ZM5.49844 2.56873H45.4984L41.86 42.9999L25.4542 47.5687L9.13993 42.9968L5.49844 2.56873Z" fill="#B371B9"/>
    </g>
    <g id="figma"><path d="M17.7083 4.16663C14.2565 4.16663 11.4583 6.96486 11.4583 10.4166C11.4583 13.8684 14.2565 16.6666 17.7083 16.6666H32.2916C35.7435 16.6666 38.5416 13.8684 38.5416 10.4166C38.5416 6.96486 35.7435 4.16663 32.2916 4.16663H17.7083Z" fill="#B371B9"/>
        <path d="M32.2917 18.75C28.8398 18.75 26.0417 21.5481 26.0417 25C26.0417 28.4519 28.8398 31.25 32.2917 31.25C35.7436 31.25 38.5417 28.4519 38.5417 25C38.5417 21.5481 35.7436 18.75 32.2917 18.75Z" fill="#B371B9"/>
        <path d="M11.4583 25C11.4583 21.5481 14.2565 18.75 17.7083 18.75H23.9583V31.25H17.7083C14.2565 31.25 11.4583 28.4519 11.4583 25Z" fill="#B371B9"/>
        <path d="M17.7083 33.3334C14.2565 33.3334 11.4583 36.1315 11.4583 39.5834C11.4583 43.0352 14.2565 45.8334 17.7083 45.8334C21.1602 45.8334 23.9583 43.0352 23.9583 39.5834V33.3334H17.7083Z" fill="#B371B9"/>
    </g>
    <g id="git">
        <path d="M49.0571 22.7726L27.2266 0.942937C25.9702 -0.314312 23.9311 -0.314312 22.6731 0.942937L18.1399 5.47622L23.8905 11.2269C25.2268 10.7753 26.7592 11.0783 27.8245 12.1435C28.8948 13.2156 29.1956 14.7612 28.7331 16.1018L34.2751 21.6441C35.6159 21.1822 37.163 21.481 38.2339 22.5537C39.7305 24.0498 39.7305 26.4747 38.2339 27.9718C36.7368 29.4691 34.312 29.4691 32.8141 27.9718C31.6883 26.8448 31.4102 25.1914 31.9801 23.8045L26.8118 18.636L26.8112 32.2373C27.1858 32.4225 27.528 32.6672 27.8245 32.9619C29.3211 34.458 29.3211 36.8831 27.8245 38.3813C26.3274 39.8778 23.9014 39.8778 22.4065 38.3813C20.9098 36.8831 20.9098 34.4582 22.4065 32.9621C22.7652 32.6032 23.1914 32.319 23.6606 32.1259V18.3979C23.1907 18.2061 22.7642 17.9218 22.4065 17.5618C21.2725 16.4294 20.9998 14.7655 21.5809 13.3731L15.9121 7.70361L0.943361 22.6717C-0.314454 23.9301 -0.314454 25.9694 0.943361 27.2268L22.7743 49.0569C24.0311 50.3144 26.0698 50.3144 27.3282 49.0569L49.0569 27.3282C50.3144 26.0704 50.3144 24.0299 49.0569 22.7726" fill="#B371B9"/>
    </g>
    <g id="gmail">
        <ellipse cx="19.1753" cy="18.8683" rx="18.8091" ry="18.8683" fill="#B371B9"/>
        <g clip-path="url(#clip0_1_4029)">
            <path d="M30.9308 11.4974V26.2383C30.9308 27.0748 30.2953 27.7123 29.4614 27.7123H27.9919V14.3343L19.1751 20.6876L10.3584 14.3343V27.7123H8.88889C8.05498 27.7123 7.41943 27.0748 7.41943 26.2383V11.4974C7.41943 11.0788 7.57667 10.7103 7.84043 10.4494C7.97781 10.3115 8.14142 10.2027 8.32153 10.1295C8.50165 10.0564 8.69459 10.0203 8.88889 10.0234H9.37896L19.1751 17.1483L28.9713 10.0234H29.4614C29.8787 10.0234 30.246 10.1811 30.5098 10.4494C30.7736 10.7103 30.9308 11.0788 30.9308 11.4974Z" fill="white"/>
        </g>
        <defs>
            <clipPath id="clip0_1_4029">
                <rect width="23.5114" height="23.5853" fill="white" transform="translate(7.41943 7.07558)"/>
            </clipPath>
        </defs>
    </g>
    <g id="html">
        <path fill-rule="evenodd" clip-rule="evenodd" d="M18.3125 42.0645L27.2623 6.6875L31.4375 7.87241L22.4878 43.3125L18.3125 42.0645Z" fill="#B371B9"/>
        <path fill-rule="evenodd" clip-rule="evenodd" d="M13.5025 12.6875L16.5625 15.9278L7.99501 25.0001L16.5625 34.0721L13.5025 37.3125L1.875 25.0001L13.5025 12.6875Z" fill="#B371B9"/>
        <path fill-rule="evenodd" clip-rule="evenodd" d="M36.4976 12.6875L33.4375 15.9278L42.0051 25.0001L33.4375 34.0721L36.4976 37.3125L48.125 25.0001L36.4976 12.6875Z" fill="#B371B9"/>
    </g>
    <g id="instagram">
        <path d="M28.0387 3.77405H9.58134C6.37189 3.77405 3.762 6.39124 3.762 9.60968V15.7754V28.1304C3.762 31.3489 6.37189 33.966 9.58134 33.966H28.0387C31.2481 33.966 33.858 31.3489 33.858 28.1304V15.7636V9.59789C33.8462 6.39124 31.2364 3.77405 28.0387 3.77405ZM29.708 7.25185H30.3781V7.91204V12.3683L25.2877 12.3801L25.2759 7.26364L29.708 7.25185ZM14.5072 15.7636C15.4712 14.4314 17.0348 13.5472 18.7982 13.5472C20.5617 13.5472 22.1253 14.4196 23.0893 15.7636C23.7241 16.636 24.0886 17.7088 24.0886 18.8642C24.0886 21.7879 21.7138 24.1811 18.7865 24.1811C15.8592 24.1811 13.5079 21.7879 13.5079 18.8642C13.5079 17.7088 13.8841 16.636 14.5072 15.7636ZM30.9189 28.1186C30.9189 29.7102 29.6257 31.007 28.0387 31.007H9.58134C7.99425 31.007 6.70106 29.7102 6.70106 28.1186V15.7636H11.1919C10.804 16.7185 10.5806 17.7678 10.5806 18.8642C10.5806 23.4148 14.2721 27.1166 18.81 27.1166C23.3479 27.1166 27.0394 23.4148 27.0394 18.8642C27.0394 17.7678 26.816 16.7185 26.428 15.7636H30.9189V28.1186Z" fill="#B371B9"/>
    </g>
    <g id="javascript">
        <path d="M0.939453 0H49.0604V50H0.939453V0Z" fill="#B371B9"/>
        <path d="M13.5914 41.7835L17.2739 39.4679C17.9844 40.7767 18.6306 41.8841 20.1808 41.8841C21.6668 41.8841 22.6036 41.2801 22.6036 38.9309V22.9547H27.1258V38.9973C27.1258 43.864 24.3803 46.0792 20.3747 46.0792C16.7571 46.0792 14.6572 44.1324 13.5913 41.7831" fill="white"/>
        <path d="M29.583 41.2801L33.2651 39.065C34.2344 40.7097 35.4942 41.9179 37.7229 41.9179C39.5966 41.9179 40.7915 40.9445 40.7915 39.6019C40.7915 37.9909 39.5641 37.4203 37.4967 36.4808L36.3665 35.977C33.1038 34.5341 30.9395 32.7217 30.9395 28.8954C30.9395 25.3713 33.5236 22.6862 37.5615 22.6862C40.4364 22.6862 42.5037 23.7267 43.9894 26.4454L40.4684 28.7946C39.6932 27.3516 38.8536 26.7811 37.5615 26.7811C36.2371 26.7811 35.3972 27.6537 35.3972 28.7946C35.3972 30.2043 36.2371 30.775 38.1751 31.6477L39.3055 32.1512C43.1495 33.863 45.3138 35.6081 45.3138 39.5348C45.3138 43.764 42.1159 46.0796 37.8199 46.0796C33.6207 46.0796 30.9073 43.9988 29.5831 41.2801" fill="white"/>
    </g>
    <g id="quote">
        <path d="M13.5417 20.8333C13.0771 20.8333 12.6312 20.9042 12.1875 20.9688C12.3312 20.4854 12.4792 19.9938 12.7167 19.5521C12.9542 18.9104 13.325 18.3542 13.6937 17.7938C14.0021 17.1875 14.5458 16.7771 14.9458 16.2583C15.3646 15.7542 15.9354 15.4188 16.3875 15C16.8312 14.5625 17.4125 14.3438 17.875 14.0354C18.3583 13.7583 18.7792 13.4521 19.2292 13.3063L20.3521 12.8438L21.3396 12.4333L20.3292 8.39584L19.0854 8.69584C18.6875 8.79584 18.2021 8.9125 17.65 9.05209C17.0854 9.15625 16.4833 9.44167 15.8125 9.70209C15.15 9.99792 14.3833 10.1979 13.6708 10.6729C12.9542 11.1271 12.1271 11.5063 11.3979 12.1146C10.6917 12.7417 9.83958 13.2854 9.21041 14.0833C8.52291 14.8292 7.84375 15.6125 7.31666 16.5042C6.70625 17.3542 6.29166 18.2875 5.85416 19.2104C5.45833 20.1333 5.13958 21.0771 4.87916 21.9938C4.38541 23.8313 4.16458 25.5771 4.07916 27.0708C4.00833 28.5667 4.05 29.8104 4.1375 30.7104C4.16875 31.1354 4.22708 31.5479 4.26875 31.8333L4.32083 32.1833L4.375 32.1708C4.74554 33.9017 5.59855 35.4924 6.83534 36.7587C8.07213 38.0251 9.64217 38.9154 11.3638 39.3267C13.0855 39.738 14.8884 39.6535 16.5641 39.083C18.2397 38.5124 19.7196 37.4792 20.8325 36.1027C21.9454 34.7262 22.6459 33.0628 22.853 31.3048C23.06 29.5468 22.7651 27.7662 22.0024 26.1688C21.2396 24.5714 20.0403 23.2226 18.543 22.2784C17.0458 21.3342 15.3118 20.8332 13.5417 20.8333ZM36.4583 20.8333C35.9937 20.8333 35.5479 20.9042 35.1042 20.9688C35.2479 20.4854 35.3958 19.9938 35.6333 19.5521C35.8708 18.9104 36.2417 18.3542 36.6104 17.7938C36.9188 17.1875 37.4625 16.7771 37.8625 16.2583C38.2812 15.7542 38.8521 15.4188 39.3042 15C39.7479 14.5625 40.3292 14.3438 40.7917 14.0354C41.275 13.7583 41.6958 13.4521 42.1458 13.3063L43.2687 12.8438L44.2562 12.4333L43.2458 8.39584L42.0021 8.69584C41.6042 8.79584 41.1187 8.9125 40.5667 9.05209C40.0021 9.15625 39.4 9.44167 38.7292 9.70209C38.0688 10 37.3 10.1979 36.5875 10.675C35.8708 11.1292 35.0438 11.5083 34.3146 12.1167C33.6083 12.7438 32.7562 13.2875 32.1271 14.0833C31.4396 14.8292 30.7604 15.6125 30.2333 16.5042C29.6229 17.3542 29.2083 18.2875 28.7708 19.2104C28.375 20.1333 28.0562 21.0771 27.7958 21.9938C27.3021 23.8313 27.0812 25.5771 26.9958 27.0708C26.925 28.5667 26.9667 29.8104 27.0542 30.7104C27.0854 31.1354 27.1437 31.5479 27.1854 31.8333L27.2375 32.1833L27.2917 32.1708C27.6622 33.9017 28.5152 35.4924 29.752 36.7587C30.9888 38.0251 32.5588 38.9154 34.2805 39.3267C36.0022 39.738 37.8051 39.6535 39.4807 39.083C41.1564 38.5124 42.6363 37.4792 43.7492 36.1027C44.8621 34.7262 45.5626 33.0628 45.7696 31.3048C45.9766 29.5468 45.6817 27.7662 44.919 26.1688C44.1563 24.5714 42.957 23.2226 41.4597 22.2784C39.9624 21.3342 38.2284 20.8332 36.4583 20.8333Z" fill="#B371B9"/>
    </g>
    <g id="react">
        <g clip-path="url(#clip0_20_1854)">
            <path d="M47.8125 25C47.8125 22.0833 44.6875 19.375 39.4792 17.5L38.5417 17.1875V16.7708C39.6875 11.0416 38.8542 6.7708 36.25 5.2083C33.6458 3.6458 29.7917 5.10414 25.625 8.74997L25 9.37497L24.7917 9.16664H24.5833C20.3125 5.2083 16.1458 3.85414 13.5417 5.31247C10.9375 6.7708 10.2083 10.8333 11.25 16.1458C11.3596 16.4838 11.4295 16.8333 11.4583 17.1875L10.3125 17.6041C5.20833 19.375 2.1875 22.0833 2.1875 25C2.1875 27.9166 5.52083 30.8333 10.7292 32.7083L11.4583 32.9166C11.3296 33.2854 11.2593 33.672 11.25 34.0625C10.2083 39.2708 11.1458 43.2291 13.5417 44.6875C15.9375 46.1458 20.3125 44.7916 24.4792 41.1458L25.1042 40.625L25.9375 41.4583C28.8542 43.9583 31.7708 45.3125 34.0625 45.3125C34.8708 45.3309 35.6671 45.1137 36.3542 44.6875C38.9583 43.2291 39.8958 38.9583 38.75 33.5416V33.3333C38.705 33.1619 38.6702 32.988 38.6458 32.8125H38.9583C44.4792 30.8333 47.8125 28.0208 47.8125 25ZM44.7917 25C44.7917 26.25 42.5 28.4375 38.0208 29.8958H37.8125C37.2664 28.2202 36.6051 26.5843 35.8333 25C36.5625 23.3333 37.1875 21.6666 37.7083 20.1041L38.5417 20.3125C42.7083 21.7708 44.7917 23.75 44.7917 25ZM27.9167 39.1666L27.0833 38.5416C28.2761 37.2201 29.3891 35.8287 30.4167 34.375L35.7292 33.5416C35.8333 33.75 35.8333 33.9583 35.9375 34.0625C36.3087 35.9492 36.379 37.8829 36.1458 39.7916C35.9995 40.7045 35.5608 41.5452 34.8958 42.1875C33.8542 42.8125 31.0417 41.9791 27.9167 39.1666ZM26.5625 34.5833L25.1042 36.4583L23.4375 34.5833H26.5625ZM12.2917 20C12.8152 21.7174 13.4771 23.3895 14.2708 25C13.4765 26.646 12.8146 28.3528 12.2917 30.1041L11.6667 29.8958C9.84256 29.3201 8.1454 28.4008 6.66667 27.1875C6.28377 26.9455 5.95605 26.6257 5.7048 26.2488C5.45356 25.872 5.2844 25.4465 5.20833 25C5.20833 23.75 7.29167 21.7708 11.25 20.4166L12.2917 20ZM23.4375 15.4166L25 13.6458L26.5625 15.4166H23.4375ZM34.8958 7.81247C36.0417 8.43747 36.6667 11.5625 35.7292 16.1458C35.734 16.2022 35.7272 16.2591 35.7093 16.3128C35.6914 16.3665 35.6627 16.416 35.625 16.4583L30.4167 15.625C29.3891 14.1712 28.2761 12.7799 27.0833 11.4583L27.7083 10.9375C31.0417 8.0208 33.75 7.18747 34.8958 7.81247ZM17.5 18.8541L16.6667 20.2083L15.9375 21.5625C15.625 20.8333 15.4167 20.1041 15.1042 19.2708L17.5 18.8541ZM15.1042 30.7291C15.4167 30 15.625 29.2708 15.9375 28.4375L16.6667 29.7916L17.5 31.1458L15.1042 30.7291ZM32.5 25C31.9699 26.142 31.3788 27.2548 30.7292 28.3333C30.1042 29.4791 29.375 30.5208 28.75 31.5625H21.25C20.5208 30.4166 19.7917 29.375 19.2708 28.3333C18.6161 27.2577 18.0248 26.1447 17.5 25C18.0054 23.8458 18.5974 22.7315 19.2708 21.6666C19.8693 20.5874 20.5301 19.544 21.25 18.5416C23.7457 18.3334 26.2543 18.3334 28.75 18.5416C29.4792 19.5833 30.1042 20.625 30.7292 21.6666C31.4026 22.7315 31.9946 23.8458 32.5 25ZM33.3333 20.2083L32.5 18.8541L34.8958 19.375C34.6639 20.1208 34.3856 20.8514 34.0625 21.5625L33.3333 20.2083ZM32.5 31.1458L33.3333 29.7916L34.0625 28.3333L35 30.7291L32.5 31.1458ZM22.8125 11.3541H22.9167L19.5833 15.5208L14.375 16.3541C14.2708 16.0416 14.2708 15.8333 14.1667 15.5208C13.3333 11.25 13.9583 8.3333 15 7.81247C15.2766 7.63082 15.61 7.55672 15.9375 7.60414C17.3958 7.60414 19.8958 8.6458 22.7083 11.1458L22.8125 11.3541ZM14.1667 34.5833C14.1857 34.2617 14.256 33.9452 14.375 33.6458L19.6875 34.375C20.689 35.8481 21.8034 37.2412 23.0208 38.5416L22.8125 38.75L22.6042 38.9583C21.184 40.2738 19.5211 41.2999 17.7083 41.9791C17.3107 42.1874 16.875 42.3133 16.4275 42.3491C15.98 42.3849 15.5299 42.3299 15.1042 42.1875C13.9583 41.5625 13.3333 38.75 14.1667 34.5833Z" fill="#B371B9"/>
            <path d="M25 20.4166C24.0894 20.3959 23.1932 20.647 22.4259 21.1379C21.6586 21.6287 21.0549 22.3371 20.692 23.1726C20.3291 24.008 20.2233 24.9327 20.3882 25.8285C20.5532 26.7243 20.9812 27.5507 21.6179 28.2022C22.2545 28.8536 23.0709 29.3006 23.9627 29.4861C24.8545 29.6715 25.7813 29.587 26.6249 29.2434C27.4685 28.8998 28.1905 28.3126 28.6989 27.5568C29.2073 26.801 29.4789 25.9108 29.4792 24.9999C29.4795 23.8022 29.0109 22.6519 28.1738 21.7953C27.3366 20.9387 26.1974 20.4438 25 20.4166Z" fill="#B371B9"/>
        </g>
        <defs>
            <clipPath id="clip0_20_1854">
                <rect width="50" height="50" fill="white"/>
            </clipPath>
        </defs>
    </g>
    <g id="styled-components">
        <path d="M37.2591 6.25L36.9888 7.64963C36.5708 10.3021 36.7221 11.061 37.8682 12.0454L38.9747 12.9546L37.8286 18.0305C37.1438 21.0588 36.3041 23.5968 35.7707 24.4308C35.313 25.1503 34.7796 26.2099 34.6642 26.7791C34.4732 27.4592 33.8245 28.1429 32.8334 28.7478C31.9576 29.2418 30.2385 30.5663 29.0203 31.6294C28.0472 32.4993 27.3769 33.0326 27.0129 33.2617L25.8235 34.196C25.4415 34.8046 25.2253 35.295 25.1424 35.6672C25.0595 36.0503 25.1063 36.3044 25.2289 36.4905C25.3478 36.6695 25.5532 36.7948 25.8343 36.8736C26.1671 36.951 26.5097 36.9788 26.8507 36.9559C27.6222 36.9035 28.3858 36.7691 29.1284 36.555C29.3807 36.487 29.5789 36.4225 29.7519 36.3653C30.0186 36.0395 30.6349 35.4238 31.7269 34.3535C34.6246 31.5149 35.731 29.9613 34.5885 30.3802C34.1669 30.5305 34.3579 30.1511 35.0823 29.3922C36.6104 27.9138 37.4862 25.6801 39.317 18.6748C40.7659 13.1443 40.7659 13.0656 41.8327 13.0656C42.3336 13.0656 43.75 13.1515 43.75 13.1515V6.25H40.4992H37.2591ZM24.4216 18.0806C23.3692 18.0735 21.1058 19.6664 14.3303 25.1611C14.0383 25.8519 14.0131 26.328 14.1464 26.6359C14.2329 26.8471 14.3915 26.9938 14.6114 27.1012C14.8276 27.2086 15.1087 27.2731 15.4187 27.2981C16.035 27.3518 16.763 27.2552 17.3504 27.1406L17.7469 27.0511C17.8826 26.8704 18.0608 26.7254 18.2659 26.6287C18.6839 26.3996 20.4391 24.8103 22.1943 23.1064C25.2829 19.9993 26.0073 18.5961 24.7495 18.1415C24.6463 18.1007 24.5326 18.08 24.4216 18.0806ZM32.336 20.2391C31.4098 20.2642 29.7411 21.3309 26.8831 23.5968C25.4487 24.753 24.5405 25.3759 24.0539 25.5047L22.1654 26.9867C21.4554 28.2753 21.3509 29.0736 21.5383 29.5139C21.5852 29.6225 21.6533 29.7208 21.7387 29.8031C21.8241 29.8855 21.925 29.9502 22.0357 29.9936C22.311 30.1015 22.6046 30.1562 22.9006 30.1546C23.608 30.1471 24.3112 30.0448 24.991 29.8504C25.3453 29.7559 25.6952 29.6461 26.0398 29.521L26.1443 29.4781L26.3353 29.3779C26.6957 28.9161 27.5246 28.0462 28.5626 27.044C31.8423 23.9011 33.5181 21.6674 33.1758 20.8333C33.0208 20.4288 32.7541 20.2248 32.336 20.2391ZM23.5998 24.1051C23.3331 24.1337 22.7349 24.5919 21.6573 25.5298C20.1003 26.8972 18.4028 27.6847 17.8154 27.3339C17.6788 27.3645 17.5419 27.3932 17.4045 27.4198C16.8062 27.5379 16.0602 27.6346 15.3934 27.5809C15.0793 27.562 14.7714 27.4855 14.4852 27.3554C14.2153 27.2328 13.9999 27.0164 13.8797 26.7468C13.7464 26.4247 13.7464 26.0238 13.8978 25.5119L11.5551 27.4234L6.2536 31.7798V38.8424L23.6251 25.2506C23.6217 25.1018 23.6411 24.9533 23.6827 24.8103C23.8161 24.3306 23.8089 24.0872 23.5998 24.1087V24.1051ZM31.0746 26.3925C30.8115 26.3925 30.3718 26.7612 29.669 27.5021C28.714 28.5152 27.2111 29.496 26.4146 29.6964L26.292 29.7609C26.1613 29.8145 26.0291 29.8646 25.8956 29.9112C25.6794 29.9828 25.3982 30.0687 25.0739 30.1546C24.4252 30.33 23.6179 30.4911 22.897 30.4732C22.5572 30.4728 22.2207 30.4072 21.9059 30.2799C21.6093 30.1585 21.3716 29.9275 21.2428 29.6356C21.0338 29.138 21.1167 28.44 21.5744 27.4485L6.25 39.4366V43.75H12.9823L27.2615 32.6103C27.6327 32.2022 28.1914 31.6438 28.9446 30.9457C30.9629 29.0879 31.4206 28.4472 31.4206 27.4986C31.4206 26.7612 31.3377 26.3889 31.0746 26.3889V26.3925ZM34.4732 33.3727L33.2514 34.5826C32.5667 35.2269 31.3449 36.0216 30.5088 36.3617L30.343 36.4333L30.3322 36.4512L30.2961 36.487C30.2637 36.512 30.2493 36.5156 30.2241 36.5263C29.8903 36.6518 29.5512 36.7629 29.2077 36.8592C28.4441 37.08 27.6586 37.218 26.8651 37.2709C26.4899 37.2948 26.1132 37.2622 25.7478 37.1743C25.4307 37.1049 25.1508 36.9213 24.9622 36.6588C24.7892 36.3939 24.7387 36.0395 24.836 35.6028C24.9134 35.2919 25.0284 34.9914 25.1784 34.7079L13.6563 43.75H28.9807L30.8115 41.6667C33.3271 38.7529 34.4732 36.6695 34.4732 34.8869V33.3727Z" fill="#B371B9"/>
    </g>
    <g id="telegram">
        <rect width="37.62" height="37.74" rx="18.81" fill="#B371B9"/>
        <path d="M27.845 12.6854L25.1199 25.5777C24.9142 26.4874 24.3782 26.7139 23.6165 26.2856L19.4641 23.216L17.4608 25.1494C17.2389 25.3719 17.0538 25.5576 16.6262 25.5576L16.9248 21.3157L24.6201 14.3399C24.9548 14.041 24.5472 13.8747 24.1002 14.1743L14.5867 20.184L10.4911 18.8977C9.60036 18.6188 9.58424 18.0041 10.6768 17.5751L26.6963 11.3836C27.438 11.1047 28.0869 11.5486 27.845 12.6854Z" fill="white"/>
    </g>
    <g id="typescript">
        <path d="M0 25V50H25H50V25V0H25H0V25Z" fill="#B371B9"/>
        <path d="M11.0575 25.1658L11.0416 27.2134L14.2956 27.2134H17.5495V36.4594V45.7054H19.8511H22.1527V36.4594L22.1527 27.2134H25.4067H28.6606V25.2054C28.6606 24.0943 28.6368 23.1658 28.6051 23.142C28.5813 23.1102 24.621 23.0943 19.8194 23.1023L11.0813 23.1261L11.0575 25.1658Z" fill="white"/>
        <path d="M40.3444 23.0682C41.6142 23.3857 42.5825 23.9492 43.4714 24.8698C43.9317 25.3619 44.6142 26.2587 44.6698 26.473C44.6856 26.5365 42.511 27.9968 41.1936 28.8143C41.146 28.846 40.9555 28.6397 40.7412 28.3222C40.0983 27.3857 39.4237 26.9809 38.392 26.9095C36.8761 26.8063 35.8999 27.6 35.9079 28.9254C35.9079 29.3143 35.9634 29.5444 36.1221 29.8619C36.4555 30.5524 37.0745 30.9651 39.019 31.8063C42.5983 33.346 44.1301 34.3619 45.0825 35.8063C46.146 37.4174 46.384 39.9889 45.6618 41.9016C44.8682 43.9809 42.8999 45.3936 40.1301 45.8619C39.2729 46.0127 37.2412 45.9889 36.3206 45.8222C34.3126 45.4651 32.4079 44.473 31.2333 43.1714C30.7729 42.6635 29.8761 41.3381 29.9317 41.2428C29.9555 41.2111 30.1618 41.0841 30.392 40.9492C30.6142 40.8222 31.4555 40.3381 32.2491 39.8778L33.6856 39.0444L33.9872 39.4889C34.4079 40.1317 35.3285 41.0127 35.884 41.3063C37.4793 42.1476 39.6698 42.0286 40.7491 41.0603C41.2094 40.6397 41.3999 40.2032 41.3999 39.5603C41.3999 38.9809 41.3285 38.727 41.0269 38.2905C40.638 37.7349 39.8444 37.2666 37.5904 36.2905C35.011 35.1793 33.8999 34.4889 32.884 33.3936C32.2967 32.7587 31.7412 31.7428 31.511 30.8936C31.3206 30.1873 31.2729 28.4174 31.4237 27.7032C31.9555 25.2111 33.8364 23.473 36.5507 22.9571C37.4317 22.7905 39.4793 22.854 40.3444 23.0682Z" fill="white"/>
    </g>
    <g id="vk">
        <path d="M32.5494 25.1491C31.8942 24.3315 31.1495 23.5987 30.4294 22.89C30.1733 22.6379 29.9086 22.3774 29.6533 22.1182C28.9206 21.3736 28.8939 21.0938 29.4741 20.2479C29.8754 19.6648 30.301 19.081 30.7125 18.5163C31.0858 18.0041 31.4719 17.4743 31.8418 16.9428L31.9178 16.8335C32.6249 15.8165 33.3562 14.7648 33.7454 13.4961C33.8465 13.1614 33.9526 12.6688 33.71 12.2569C33.4675 11.8454 32.9971 11.7198 32.6643 11.6612C32.4997 11.6322 32.3363 11.6282 32.1846 11.6282L27.5537 11.6248L27.5155 11.6244C26.8153 11.6244 26.3435 11.9674 26.0731 12.6731C25.8149 13.3474 25.5314 14.0654 25.2078 14.7481C24.5639 16.1075 23.7461 17.6733 22.5627 18.9792L22.5127 19.0347C22.3729 19.1909 22.2146 19.3677 22.0989 19.3677C22.0811 19.3677 22.0618 19.3641 22.04 19.357C21.7948 19.2577 21.6303 18.6409 21.6378 18.3539C21.6379 18.35 21.6379 18.346 21.6379 18.3421L21.6347 12.7783C21.6347 12.7591 21.6334 12.7399 21.631 12.7208C21.5132 11.8164 21.2522 11.2534 20.2663 11.0526C20.2401 11.0472 20.2133 11.0446 20.1867 11.0446H15.3715C14.587 11.0446 14.1547 11.376 13.7484 11.8721C13.6387 12.0047 13.4104 12.2808 13.5236 12.6157C13.6384 12.9556 14.0111 13.0282 14.1324 13.0518C14.7349 13.171 15.0744 13.554 15.1706 14.2233C15.3385 15.3855 15.3591 16.6259 15.2355 18.1271C15.2011 18.5443 15.1329 18.8666 15.0206 19.1419C14.9945 19.2061 14.9019 19.4158 14.8076 19.4159C14.7776 19.4159 14.6909 19.4036 14.5329 19.2905C14.1594 19.0245 13.8861 18.6449 13.5675 18.176C12.4836 16.5837 11.5739 14.8296 10.7861 12.8123C10.4939 12.0696 9.94825 11.6539 9.24891 11.6417C8.48048 11.6295 7.78379 11.6237 7.11933 11.6237C6.39332 11.6237 5.72024 11.6306 5.06298 11.6448C4.50033 11.6552 4.11114 11.8305 3.90636 12.1663C3.70125 12.5024 3.71459 12.9439 3.94604 13.4783C5.79885 17.7601 7.47877 20.8733 9.39322 23.5731C10.7347 25.4622 12.0801 26.7699 13.6271 27.6879C15.2569 28.6571 17.0834 29.1283 19.2107 29.1283C19.4519 29.1283 19.7012 29.1222 19.9526 29.11C21.1888 29.0474 21.6474 28.5823 21.7054 27.3311C21.733 26.6918 21.8002 26.0212 22.1026 25.4493C22.2935 25.089 22.4714 25.089 22.5299 25.089C22.6426 25.089 22.7822 25.1429 22.9322 25.244C23.2013 25.4265 23.432 25.6711 23.6211 25.8847C23.7992 26.0877 23.9752 26.2927 24.1514 26.4978C24.5316 26.9405 24.9248 27.3982 25.3355 27.8323C26.2345 28.7831 27.2249 29.2012 28.3624 29.1105H32.6081C32.6171 29.1105 32.6262 29.1101 32.6353 29.1095C33.0583 29.0805 33.4247 28.8366 33.6405 28.4403C33.9079 27.9493 33.9025 27.323 33.6261 26.7645C33.3126 26.133 32.9058 25.5934 32.5494 25.1491Z" fill="#B371B9"/>
    </g>
    <g id="scroll">
        <path fill-rule="evenodd" clip-rule="evenodd" d="M8.99931 0C9.26453 0 9.51888 0.105357 9.70642 0.292893C9.89395 0.48043 9.99931 0.734784 9.99931 1V24.586L16.2913 18.292C16.4791 18.1042 16.7338 17.9987 16.9993 17.9987C17.2649 17.9987 17.5195 18.1042 17.7073 18.292C17.8951 18.4798 18.0006 18.7344 18.0006 19C18.0006 19.2656 17.8951 19.5202 17.7073 19.708L9.70731 27.708C9.61442 27.8011 9.50407 27.875 9.38258 27.9254C9.26109 27.9758 9.13084 28.0018 8.99931 28.0018C8.86777 28.0018 8.73753 27.9758 8.61604 27.9254C8.49455 27.875 8.3842 27.8011 8.29131 27.708L0.29131 19.708C0.103537 19.5202 -0.00195313 19.2656 -0.00195312 19C-0.00195312 18.7344 0.103537 18.4798 0.29131 18.292C0.479083 18.1042 0.733759 17.9987 0.99931 17.9987C1.26486 17.9987 1.51954 18.1042 1.70731 18.292L7.99931 24.586V1C7.99931 0.734784 8.10467 0.48043 8.2922 0.292893C8.47974 0.105357 8.73409 0 8.99931 0Z" fill="#846387"/>
    </g>
    <g id="logo">
        <g id="color">
            <g id="line_1_">
                <path fill="#B399C8" d="M59.5,25c0-6.9036-5.5964-12.5-12.5-12.5c-4.7533,0-8.8861,2.6536-11,6.5598 C33.8861,15.1536,29.7533,12.5,25,12.5c-6.9036,0-12.5,5.5964-12.5,12.5c0,2.9699,1.0403,5.6942,2.7703,7.8387l-0.0043,0.0034 L36,58.5397l20.7339-25.6975l-0.0043-0.0034C58.4597,30.6942,59.5,27.9699,59.5,25z"/>
            </g>
        </g>
        <g id="hair"/>
        <g id="skin"/>
        <g id="skin-shadow"/>
        <g id="line">
            <path fill="none" stroke="#000000" stroke-linejoin="round" stroke-miterlimit="10" stroke-width="2" d="M59.5,25 c0-6.9036-5.5964-12.5-12.5-12.5c-4.7533,0-8.8861,2.6536-11,6.5598C33.8861,15.1536,29.7533,12.5,25,12.5 c-6.9036,0-12.5,5.5964-12.5,12.5c0,2.9699,1.0403,5.6942,2.7703,7.8387l-0.0043,0.0034L36,58.5397l20.7339-25.6975l-0.0043-0.0034 C58.4597,30.6942,59.5,27.9699,59.5,25z"/>
        </g>
    </g>
    <g id="newHtml">
        <svg width="100" height="100" viewBox="0 0 100 100" fill="none" xmlns="http://www.w3.org/2000/svg">
        <g id="SVGRepo_bgCarrier" stroke-width="0"/>

        <g id="SVGRepo_tracerCarrier" stroke-linecap="round" stroke-linejoin="round"/>

        <g id="SVGRepo_iconCarrier"> <title>html [#B371B9]</title> <desc>Created with Sketch.</desc> <defs> </defs> <g id="Page-1" stroke="none" stroke-width="1" fill="none" fill-rule="evenodd"> <g id="Dribbble-Light-Preview" transform="translate(-61.000000, -7639.000000)" fill="#B371B9"> <g id="icons" transform="translate(56.000000, 160.000000)"> <path d="M19.4350881,7485 L19.4279481,7485 L10.8119794,7485 L11.0180201,7487 L19.2300674,7487 C19.109707,7488.752 18.7455658,7492.464 18.6119454,7494.153 L13.99949,7495.451 L13.99949,7495.455 L13.98929,7495.46 L9.37377458,7493.836 L9.05757353,7490 L11.3199411,7490 L11.4800816,7492.063 L13.99337,7493 L13.99949,7493 L16.5086984,7492.1 L16.7667592,7489 L8.95659319,7489 C8.91885306,7488.599 8.43333144,7483.392 8.34867116,7483 L19.6370488,7483 C19.5738086,7483.66 19.5095484,7484.338 19.4350881,7485 L19.4350881,7485 Z M5,7479 L6.63812546,7497.148 L13.98929,7499 L21.3598345,7497.111 L23,7479 L5,7479 Z" id="html-[#B371B9]"> </path> </g> </g> </g> </g>
</g>
</svg>
